<?xml version="1.0" encoding="UTF-8"?><svg xmlns="http://www.w3.org/2000/svg" width="3430.1" height="1963" xmlns:xlink="http://www.w3.org/1999/xlink" viewBox="0 0 3430.1 1963"><defs><clipPath id="clippath"><rect x="50" y="4.6" width="3355.4" height="1952.9" fill="none"/></clipPath><clipPath id="clippath-1"><path d="M623.7,534.6c66.5,0,126.3,0,185.1,0,264.6,0,457.4.4,621.3.8,322.3.9,533.4,2.2,960.2,2.8,129.1.2,277.9.3,455.5.3,0-22.3,146.3-54.5,146.3-76.8s413.3-106.1,413.3-106.1l22.4-38.4s.3-38.1.7-88.1c.7-83.9,1.6-201.4,1.6-228.3-177.6,0-390.3,0-621.3,0C2045,.7,1080.1.4,516.3.2,229.4,0,46.4,0,46.4,0c1.8,3.7,0,98.7,0,103.3,0,0,58.8,46.9,139.2,109.2,47.9,37.1,103.4,79.7,158.8,121.1,41.2,30.8,81.9,61,119,87.9,4.9,3.6,30.9,14.4,35.7,17.8,66.8,48.8,124.8,95.3,124.8,95.3Z" fill="none"/></clipPath><clipPath id="clippath-2"><path d="M40.9,1963h3368.2c0-85.9,2.9-101.5,3.7-195.7.1-14.1,0-129.8,0-142.6,0-31,.7-56.7,1.6-80.4.1-2.8.2-5.6.3-8.4,2-47,4.7-88,4.7-150.2-497.4,0-881.6,3.8-1252.9,8-382.4,4.3-751.1,9.1-1215.6,10.7-59.4.2-120.3.4-183.1.4-45.7,0-92.3.1-140,.1,0,0-192.6,73.1-364.8,138.5-10.2,3.9-126.1,31.8-135.8,35.7C46.2,1611,0,1616.7.5,1634.8c.3,12.9.5,26.3.6,40.2.5,92.7,39.8,202.1,39.8,288Z" fill="none"/></clipPath><clipPath id="clippath-3"><path d="M46.4,1633.8s20.4-7.8,53.6-20.4c40.1-15.3,98.9-37.7,162.6-61.9,53.3-20.3,110.1-42,162.5-61.9,14.6-5.6,28.9-11,42.7-16.3,15.6-5.9,30.5-11.6,44.5-17,50.2-19.1,88.6-33.7,103.4-39.4,4.4-1.7,6.7-2.6,6.7-2.6h2221.7s2.2.8,6.1,2.3c30.7,11.4,168.7,37.7,208.2,52.3,6.7,2.5,10.6,3.9,10.6,3.9,1.5,0-1.5,4.6,0,4.6h359.3V317.3h-359.3c-.2,0-.2.5-.5.5,0,0-3.9,3.7-10.6,10.1-39.4,37.5-177.1,168.4-207.8,197.6-3.9,3.7-6.1,5.8-6.1,5.8H622.4s-2.3-1.8-6.7-5.1c-14.8-11.3-105.8-104-105.5-104.3.8-.8-43.9.3-44.2-.3,0,0-2.8-2.2-7.8-6.2-18-14.2-65.3-51.3-121.8-95.6-67.5-52.9-148-116.1-207.1-162.4-48.8-38.3-83-65.1-83-65.1v1541.5Z" fill="none"/></clipPath><clipPath id="clippath-4"><path d="M921.3,1397.9h1629.3V446.2H921.3v951.8Z" fill="none"/></clipPath><linearGradient id="linear-gradient" x1="727.7" y1="-19" x2="728.7" y2="-19" gradientTransform="translate(17409.5 53999.8) rotate(-109.7) scale(75.8 -75.8)" gradientUnits="userSpaceOnUse"><stop offset="0" stop-color="#7e7e7e"/><stop offset=".2" stop-color="#7e7e7e"/><stop offset=".4" stop-color="#fff"/><stop offset=".7" stop-color="#c1c1c1"/><stop offset="1" stop-color="#fff"/></linearGradient><linearGradient id="linear-gradient-2" x1="727.7" y1="-19" x2="728.7" y2="-19" gradientTransform="translate(-395.6 35410.1) rotate(-90) scale(46.6 -46.6)" gradientUnits="userSpaceOnUse"><stop offset="0" stop-color="#a2a4a7"/><stop offset=".2" stop-color="#a2a4a7"/><stop offset=".4" stop-color="#fff"/><stop offset=".7" stop-color="#d9dbdc"/><stop offset="1" stop-color="#fff"/></linearGradient><linearGradient id="linear-gradient-3" x1="727.7" y1="-19" x2="728.7" y2="-19" gradientTransform="translate(13025.6 34732.1) rotate(-112) scale(48.8 -48.8)" gradientUnits="userSpaceOnUse"><stop offset="0" stop-color="#a2a4a7"/><stop offset=".2" stop-color="#a2a4a7"/><stop offset=".4" stop-color="#fff"/><stop offset=".7" stop-color="#d9dbdc"/><stop offset="1" stop-color="#fff"/></linearGradient><linearGradient id="linear-gradient-4" x1="727.7" y1="-19" x2="728.7" y2="-19" gradientTransform="translate(2328.6 36423.9) rotate(-90) scale(48 -48)" gradientUnits="userSpaceOnUse"><stop offset="0" stop-color="#7e7e7e"/><stop offset=".2" stop-color="#7e7e7e"/><stop offset=".4" stop-color="#fff"/><stop offset=".7" stop-color="#c1c1c1"/><stop offset="1" stop-color="#fff"/></linearGradient><linearGradient id="linear-gradient-5" x1="727.7" y1="-19" x2="728.7" y2="-19" gradientTransform="translate(-9376.7 39756.4) rotate(-73.7) scale(55.3 -55.3)" gradientUnits="userSpaceOnUse"><stop offset="0" stop-color="#a2a4a7"/><stop offset=".2" stop-color="#a2a4a7"/><stop offset=".4" stop-color="#fff"/><stop offset=".7" stop-color="#d9dbdc"/><stop offset="1" stop-color="#fff"/></linearGradient><linearGradient id="linear-gradient-6" x1="727.7" y1="-19" x2="728.7" y2="-19" gradientTransform="translate(1957.9 29699.1) rotate(-90) scale(38.9 -38.9)" gradientUnits="userSpaceOnUse"><stop offset="0" stop-color="#a2a4a7"/><stop offset=".2" stop-color="#a2a4a7"/><stop offset=".4" stop-color="#fff"/><stop offset=".7" stop-color="#d9dbdc"/><stop offset="1" stop-color="#fff"/></linearGradient><linearGradient id="linear-gradient-7" x1="727.7" y1="-19" x2="728.7" y2="-19" gradientTransform="translate(48.6 29369.5) rotate(-90) scale(38.4 -38.4)" gradientUnits="userSpaceOnUse"><stop offset="0" stop-color="#a2a4a7"/><stop offset=".2" stop-color="#a2a4a7"/><stop offset=".4" stop-color="#fff"/><stop offset=".7" stop-color="#d9dbdc"/><stop offset="1" stop-color="#fff"/></linearGradient><linearGradient id="linear-gradient-8" x1="727.7" y1="-19" x2="728.7" y2="-19" gradientTransform="translate(1019.1 28879.7) rotate(-90) scale(37.7 -37.7)" gradientUnits="userSpaceOnUse"><stop offset="0" stop-color="#a2a4a7"/><stop offset=".2" stop-color="#a2a4a7"/><stop offset=".4" stop-color="#fff"/><stop offset=".7" stop-color="#d9dbdc"/><stop offset="1" stop-color="#fff"/></linearGradient></defs><g isolation="isolate"><g id="Layer_1"><g clip-path="url(#clippath)"><g id="Ceiling"><g clip-path="url(#clippath-1)"><image width="3385" height="540" transform="translate(45.7 -1)" xlink:href="room-1.png"/></g></g><g id="Floor"><g clip-path="url(#clippath-2)"><image width="3420" height="578" transform="translate(-.3 1385)" xlink:href="room-2.png"/></g></g><g id="Wall"><g clip-path="url(#clippath-3)"><image width="3383" height="1542" transform="translate(45.7 92)" xlink:href="room-3.png"/></g></g><image id="Wall_Light" width="45" height="1036" transform="translate(465.7 421)" xlink:href="room-4.png"/><polygon id="Window_Light" points="434 1449.1 434 430.6 187.2 251.4 187.2 1538.3 434 1449.1" fill="#edf1f5"/><g id="Accent_Wall"><g clip-path="url(#clippath-4)"><image width="1630" height="952" transform="translate(920.7 446)" xlink:href="room-5.png"/></g></g><g id="Trim"><polygon points="44 1640.2 202 1578.1 202 1539.7 186 1525 42.3 1572.6 44 1640.2" fill="url(#linear-gradient)"/><polygon points="515.4 1476.8 515.4 1449.4 509.9 1430.2 466.7 1430.2 462.6 1444.6 462.6 1476.3 515.4 1476.8" fill="url(#linear-gradient-2)"/><polygon points="623.7 1386.3 509.9 1430.2 515.4 1449.4 515.4 1476.8 627.9 1424.7 627.9 1397.9 623.7 1386.3" fill="url(#linear-gradient-3)"/><polygon points="3054.8 1492.6 3054.8 1462.4 3064.4 1444.6 3423.7 1444.6 3423.7 1489.4 3054.8 1492.6" fill="url(#linear-gradient-4)"/><polygon points="2839.5 1382.4 3064.4 1444.6 3054.8 1462.4 3054.8 1492.6 2836.8 1421.7 2836.8 1396.1 2839.5 1382.4" fill="url(#linear-gradient-5)"/><polygon points="2839.5 1382.4 2550.6 1382.4 2550.6 1421.3 2836.8 1421.3 2836.8 1396.1 2839.5 1382.4" fill="url(#linear-gradient-6)"/><polygon points="627.9 1424.5 930.5 1424.5 930.5 1386.1 623.7 1386.1 627.9 1397.7 627.9 1424.5" fill="url(#linear-gradient-7)"/><polygon points="2556.1 1430.9 2556.1 1408.9 2549.2 1395.9 921.4 1395.9 913.1 1409.8 913.1 1433.6 2556.1 1430.9" fill="url(#linear-gradient-8)"/></g><g id="Wall_Shadows"><image width="282" height="985" transform="translate(2547.7 446)" xlink:href="room-6.png" mix-blend-mode="multiply"/><image width="374" height="1055" transform="translate(508.7 422)" xlink:href="room-7.png" mix-blend-mode="multiply"/></g><g id="Window"><path d="M187.4,382.2v34.7c.1,0,46.3,26,46.3,26v238l-46.7-14.2.5,26,47,16.4.3,232.7-47.4-11.9v19.3l49.5,9.8v276.2s-49.4,10.3-49.4,10.3v19.3c-.1,0,49.4-12.1,49.4-12.1v179.7l-49.9,14.3.3,20.7,66.8-30.3V431.2l-66.8-49Z" fill="#dce8ef"/><path d="M187.4,382.2v27l54.4,34.1v239.5l-54.4-17.6v17.7l55.7,19.9v234.9l-55.7-12v17.6l58.2,12.1v285.3l-58.2,13.2v16.6l58.2-12.1v180.8l-58.2,17.6v17.6l78.1-26,.4-1016.7-78.5-49.3Z" fill="#ccd8dd"/><polygon points="265.9 431.8 435.9 431.8 186.3 250.5 186.3 382.2 265.9 431.8" fill="#e6eaed"/><polygon points="265.5 1448.2 434 1448.2 197 1534.9 187.2 1525.9 187.2 1474.2 265.5 1448.2" fill="#e6eaed"/></g><image id="Window_Shadow" width="157" height="1185" transform="translate(184.7 324)" xlink:href="room-8.png" mix-blend-mode="multiply"/></g></g></g></svg>